<?xml version="1.0" standalone="no"?>
<!DOCTYPE svg PUBLIC "-//W3C//DTD SVG 20010904//EN"
 "http://www.w3.org/TR/2001/REC-SVG-20010904/DTD/svg10.dtd">
<svg version="1.0" xmlns="http://www.w3.org/2000/svg"
 width="1280.000000pt" height="910.000000pt" viewBox="0 0 1280.000000 910.000000"
 preserveAspectRatio="xMidYMid meet">
<g transform="translate(0.000000,910.000000) scale(0.100000,-0.100000)"
fill="#000000" stroke="none">
<path d="M1009 9071 c-82 -29 -129 -55 -129 -72 0 -15 29 -7 110 27 77 32 189
39 216 13 14 -14 12 -20 -22 -60 -20 -24 -41 -54 -47 -66 -5 -13 -18 -25 -28
-28 -10 -4 -79 6 -152 21 -74 15 -142 24 -151 21 -26 -10 -19 -35 12 -40 163
-30 269 -53 280 -60 6 -5 12 -25 12 -43 0 -27 -13 -50 -67 -114 -36 -44 -72
-80 -78 -80 -7 0 -55 20 -106 44 -52 25 -107 48 -124 51 -16 4 -56 18 -88 32
-108 46 -315 40 -375 -12 -26 -23 -27 -26 -27 -142 0 -114 1 -121 33 -185 60
-122 190 -215 358 -258 43 -11 81 -26 86 -33 15 -23 -14 -159 -53 -244 -55
-124 -126 -211 -384 -468 -259 -258 -291 -299 -282 -359 3 -17 10 -64 16 -103
20 -138 65 -183 240 -239 64 -21 118 -42 120 -46 7 -20 45 -47 72 -53 16 -4
38 -18 49 -32 16 -21 30 -26 83 -30 84 -7 174 9 326 59 l123 40 67 -31 c144
-66 288 -86 558 -78 l192 6 58 -42 c152 -112 244 -266 392 -657 45 -118 113
-278 151 -355 64 -130 169 -416 200 -544 7 -30 21 -69 31 -85 10 -17 34 -87
53 -156 134 -471 316 -861 542 -1160 189 -249 383 -392 576 -425 44 -7 54 -25
123 -233 40 -119 162 -592 180 -697 4 -22 13 -62 21 -90 8 -27 27 -119 44
-203 26 -132 30 -174 30 -317 0 -281 -31 -470 -103 -626 -54 -116 -83 -149
-170 -192 -85 -42 -147 -103 -192 -190 l-29 -54 21 -29 c30 -42 105 -80 198
-99 62 -13 131 -17 311 -16 232 0 284 7 284 36 0 9 9 34 20 56 12 22 18 44 15
50 -10 15 15 193 28 206 9 9 43 5 142 -17 161 -36 178 -37 198 -6 22 33 88 63
182 81 44 8 105 20 135 26 68 13 107 27 144 52 32 23 33 9 -10 197 -14 63 -29
172 -34 242 -4 70 -11 142 -15 160 -4 18 -22 104 -41 190 -36 167 -40 210 -24
254 18 46 48 247 61 400 10 116 10 225 -1 528 -12 357 -12 387 5 476 10 52 23
101 29 108 25 26 155 44 286 39 207 -9 361 -61 675 -228 520 -277 797 -362
1230 -376 320 -10 729 38 1030 121 l90 25 55 -32 c30 -17 98 -75 150 -128 144
-146 246 -207 520 -314 80 -32 153 -64 163 -73 14 -12 17 -32 17 -106 0 -50 5
-128 12 -174 10 -75 14 -85 45 -112 47 -42 108 -42 172 0 46 29 47 29 91 14
59 -20 81 -13 110 38 21 37 25 59 28 155 3 75 8 116 17 123 8 7 61 10 141 8
l129 -3 8 -50 c5 -27 8 -93 7 -147 -1 -68 3 -99 12 -107 36 -31 94 -63 126
-70 l37 -7 -3 -53 c-3 -66 -43 -277 -77 -412 -58 -228 -141 -453 -239 -648
-94 -188 -163 -294 -268 -409 -177 -197 -228 -278 -231 -368 l-2 -48 40 -7
c22 -4 72 -13 111 -19 82 -15 156 -11 404 20 96 12 226 25 289 28 l113 7 19
50 c19 52 38 75 128 159 l52 49 -5 71 c-16 213 -17 269 -7 370 24 233 85 445
255 898 184 491 245 699 271 936 7 59 10 65 46 89 35 23 42 24 69 13 36 -15
57 -53 123 -221 25 -64 50 -125 56 -135 6 -11 24 -62 40 -114 16 -52 46 -138
67 -190 80 -206 113 -480 95 -781 -10 -163 -51 -500 -68 -554 -3 -11 -70 -83
-148 -161 -162 -161 -188 -202 -189 -298 l-1 -61 85 -8 c115 -11 554 -14 611
-4 l46 8 27 88 c14 49 40 114 56 145 31 58 43 108 17 72 -15 -20 -43 -13 -58
15 -13 25 -55 25 -69 0 -5 -11 -10 -33 -10 -49 0 -16 -6 -35 -14 -41 -32 -27
-228 97 -281 177 -31 47 -34 108 -11 257 32 204 46 379 46 565 0 256 -20 407
-81 596 -43 133 -36 183 18 133 34 -32 49 -64 69 -144 13 -51 32 -88 79 -154
100 -139 98 -134 125 -369 24 -203 41 -260 123 -407 123 -221 123 -221 108
-239 -10 -12 -31 -16 -82 -16 l-69 0 0 -50 c0 -68 19 -109 70 -151 26 -22 45
-48 51 -70 7 -30 8 -29 3 12 -4 42 -2 50 27 80 113 121 184 303 269 684 23
105 57 249 75 320 19 72 39 172 46 223 14 107 7 353 -15 555 l-14 129 29 46
c32 51 36 74 14 92 -19 16 -43 6 -47 -20 -10 -67 -50 29 -94 226 -14 66 -31
125 -38 132 -17 18 -46 4 -46 -22 0 -38 51 -249 81 -336 43 -124 46 -137 64
-340 26 -277 9 -590 -33 -632 -17 -17 -58 15 -92 70 -15 26 -41 62 -56 80 -19
24 -32 58 -46 125 -33 164 -69 246 -125 282 -34 23 -45 9 -51 -59 -6 -71 13
-125 83 -238 41 -66 59 -107 70 -159 8 -39 27 -116 41 -172 43 -164 43 -368 2
-355 -22 8 -125 219 -167 342 -51 152 -68 222 -131 530 -28 136 -67 309 -87
384 -19 76 -35 144 -35 152 1 24 21 162 27 181 8 23 -10 32 -25 14 -14 -17
-46 -20 -55 -5 -14 23 17 199 54 306 l38 110 -15 105 c-14 102 -14 107 7 153
24 56 44 56 51 0 l6 -39 7 51 c6 42 3 61 -14 100 -26 62 -22 134 14 264 60
213 87 517 87 995 0 170 3 320 6 332 17 61 80 24 105 -61 10 -32 25 -66 33
-75 14 -15 15 -28 6 -87 -15 -105 -12 -404 5 -539 23 -176 66 -378 140 -655
123 -456 165 -642 190 -825 8 -55 13 -68 24 -61 15 10 -39 322 -89 511 -10 39
-52 198 -94 355 -119 447 -153 638 -163 901 -4 121 -2 204 10 310 28 252 49
1910 25 2008 -8 33 -29 62 -90 126 -44 46 -108 121 -143 168 -76 101 -130 149
-210 187 -78 37 -158 57 -275 69 -120 13 -1229 22 -1290 11 -128 -23 -176 -31
-300 -51 -74 -11 -139 -23 -144 -27 -5 -3 -57 -6 -115 -8 -58 -1 -151 -10
-206 -19 -55 -9 -120 -19 -145 -22 -70 -8 -61 -13 22 -13 59 0 78 -4 90 -17
22 -25 58 -100 113 -233 26 -63 65 -151 87 -194 38 -75 40 -83 33 -140 -3 -34
-19 -110 -36 -171 -16 -60 -29 -117 -29 -126 0 -9 24 -42 54 -75 l53 -59 114
3 c199 5 372 21 444 41 39 11 73 17 77 13 4 -4 9 -68 10 -142 l3 -135 43 -20
c63 -31 75 -46 62 -79 -23 -61 -12 -100 47 -173 l34 -43 -45 -112 c-59 -147
-80 -237 -72 -311 6 -63 38 -147 64 -170 31 -28 322 -128 417 -144 47 -8 50
-10 49 -38 -1 -17 -8 -63 -18 -103 -9 -40 -16 -106 -16 -145 1 -85 43 -395 56
-406 5 -5 38 -18 74 -30 81 -26 121 -50 139 -84 19 -35 9 -62 -49 -137 -63
-81 -100 -136 -100 -150 0 -5 9 -10 20 -10 30 0 25 -27 -15 -72 -19 -22 -44
-65 -56 -94 -24 -58 -52 -72 -65 -31 -7 20 -8 20 -20 -13 -14 -40 -18 -77 -4
-42 12 29 38 28 46 -2 9 -38 -14 -95 -59 -143 -37 -41 -39 -44 -23 -61 9 -10
16 -23 16 -29 0 -6 9 -17 20 -24 18 -13 20 -32 29 -199 11 -224 32 -306 121
-485 33 -66 60 -128 60 -137 0 -9 8 -21 17 -26 21 -13 20 -66 -7 -219 -31
-175 -99 -394 -228 -739 -225 -598 -277 -801 -286 -1112 -2 -67 -6 -125 -9
-128 -3 -3 -50 -12 -104 -20 -100 -15 -153 -30 -153 -45 0 -4 9 -24 21 -43 29
-49 36 -143 15 -184 -19 -38 -69 -66 -101 -58 -13 3 -33 22 -44 42 -18 30 -24
34 -37 24 -8 -7 -15 -11 -17 -9 -1 2 -14 26 -28 53 -23 45 -30 51 -75 61 -27
6 -65 20 -84 30 -42 22 -136 90 -145 105 -10 16 11 62 82 177 219 358 381 829
438 1273 4 30 13 80 21 110 21 81 18 132 -17 275 -33 134 -37 145 -112 305
-25 52 -55 129 -67 170 -12 41 -57 170 -100 286 -88 235 -112 315 -170 553
-24 100 -54 192 -75 237 -91 188 -278 285 -555 286 -136 1 -223 -13 -375 -60
-106 -34 -139 -53 -269 -161 -117 -97 -177 -130 -270 -145 -41 -7 -73 -18 -77
-27 -4 -7 -16 -31 -26 -53 -23 -47 -46 -60 -243 -135 -182 -69 -266 -91 -342
-91 -36 0 -60 -5 -68 -15 -20 -24 -2 -35 58 -35 86 0 175 23 339 86 185 71
201 73 232 40 14 -14 34 -26 46 -26 17 0 21 -6 22 -42 1 -24 5 -62 8 -85 9
-52 -13 -68 -48 -35 -28 27 -70 42 -113 42 -28 0 -34 -4 -34 -21 0 -11 9 -28
21 -37 27 -23 17 -46 -30 -70 -40 -21 -99 -19 -108 4 -4 11 -9 10 -28 -2 -13
-9 -43 -25 -67 -37 -34 -17 -44 -29 -49 -55 -4 -18 -9 -36 -12 -39 -13 -12
-94 -22 -138 -16 -47 5 -64 -3 -50 -25 13 -21 253 -18 288 4 13 8 32 32 43 54
17 33 26 40 49 40 16 0 31 -6 34 -13 8 -21 -19 -88 -42 -104 -21 -14 -20 -33
0 -33 21 0 69 59 69 84 0 51 30 66 130 66 105 0 111 -7 50 -64 -22 -20 -38
-41 -35 -47 9 -14 65 -11 123 6 41 12 62 28 106 77 l56 61 0 -45 c0 -60 28
-100 115 -165 74 -56 86 -82 45 -96 -22 -8 -38 -1 -110 47 -51 35 -90 54 -99
51 -45 -18 -292 -76 -399 -94 -328 -55 -723 -71 -957 -37 -318 46 -533 126
-1005 373 -267 140 -415 193 -597 213 -102 11 -265 0 -322 -22 -32 -12 -343
-37 -468 -38 l-92 0 -6 -32 c-24 -141 -38 -317 -41 -519 -3 -200 -8 -265 -34
-430 -16 -107 -30 -202 -30 -212 0 -10 -9 -30 -20 -45 -25 -34 -50 -176 -50
-289 0 -103 11 -189 59 -438 57 -291 57 -298 19 -341 -31 -35 -31 -35 -6 -29
40 10 52 -16 53 -108 l0 -81 -69 -12 c-108 -21 -112 -24 -146 -164 -5 -19 -12
-63 -16 -96 -3 -34 -10 -67 -14 -75 -5 -8 -34 -15 -72 -17 -61 -4 -65 -3 -96
29 -18 18 -32 40 -32 50 0 9 11 56 25 103 28 97 31 120 13 114 -11 -4 -44
-100 -62 -180 -8 -34 -31 -36 -89 -7 -61 32 -147 99 -147 116 0 8 8 27 19 41
33 48 88 165 110 237 41 132 53 231 61 515 8 309 9 313 85 406 50 63 62 97 14
45 l-30 -34 -29 28 c-15 14 -33 45 -40 68 -16 57 -33 78 -72 86 l-33 7 -76
304 c-75 304 -115 438 -171 579 -16 41 -27 80 -24 87 3 7 0 28 -6 46 -15 48
-28 115 -37 183 -7 65 -18 90 -63 147 -16 20 -49 74 -74 120 -25 46 -54 91
-64 102 -34 35 -28 -1 11 -67 66 -111 71 -128 48 -166 -23 -38 -40 -36 -50 3
-12 42 -38 66 -73 66 -41 0 -72 22 -95 68 -26 49 -86 118 -134 153 -32 23 -49
50 -88 135 -27 59 -49 110 -49 115 0 5 10 9 23 10 16 0 12 4 -15 12 -75 24
-174 190 -393 657 -52 112 -100 222 -106 243 -5 21 -14 35 -20 31 -5 -3 -7
-15 -4 -25 9 -27 -13 -53 -31 -38 -8 6 -14 18 -14 27 0 41 -143 437 -189 523
-27 51 -95 211 -151 354 -106 274 -161 394 -226 491 -48 72 -154 186 -200 215
-19 11 -34 29 -34 38 0 10 36 60 81 111 59 69 77 96 69 104 -13 12 -86 -61
-161 -160 -38 -50 -41 -51 -101 -58 -96 -10 -349 -7 -435 5 -165 23 -300 86
-333 156 -8 18 -18 33 -22 33 -16 0 -7 -48 13 -74 14 -18 18 -31 12 -37 -6 -6
-68 -29 -139 -51 -103 -32 -150 -41 -230 -45 -86 -5 -103 -3 -118 12 -31 32
-14 40 76 37 71 -3 88 0 103 14 21 22 5 30 -25 14 -16 -8 -35 -8 -76 0 -30 6
-68 8 -85 5 -17 -4 -43 -2 -60 5 -25 11 -29 17 -29 54 0 28 -8 54 -26 79 -30
44 -26 64 13 73 76 16 129 40 165 72 34 30 39 40 36 71 -3 33 -6 36 -36 39
-24 2 -45 -4 -71 -22 -27 -19 -50 -26 -84 -26 -45 0 -46 -1 -52 -34 -4 -19 -4
-43 -1 -54 4 -12 -1 -28 -13 -43 l-19 -24 -49 24 c-26 13 -70 26 -98 30 l-50
6 -5 47 c-7 56 -14 65 -55 70 -27 3 -30 7 -33 42 -5 55 15 79 271 333 123 121
247 252 275 290 96 126 145 240 163 373 22 171 51 248 144 380 28 41 59 89 68
106 9 17 55 77 102 133 l86 102 -6 67 c-7 66 -6 68 32 121 51 72 76 89 153
103 83 14 373 -7 396 -29 18 -18 18 -38 0 -56 -12 -12 -209 -67 -239 -67 -4 0
-12 11 -17 25 -6 16 -14 23 -25 19 -20 -8 -19 -46 3 -75 10 -13 23 -36 30 -52
7 -16 29 -36 57 -49 25 -12 45 -26 45 -30 0 -20 -37 -80 -127 -206 -101 -142
-169 -264 -179 -322 -3 -19 -12 -54 -20 -78 -8 -24 -15 -76 -15 -115 -1 -138
2 -222 11 -232 4 -5 15 -48 24 -94 18 -97 42 -130 133 -181 60 -34 72 -52 90
-138 7 -35 24 -78 37 -95 72 -97 96 -188 96 -373 0 -69 4 -125 10 -129 5 -3
23 1 39 10 35 17 93 20 122 4 18 -9 30 -1 98 63 85 82 148 118 205 118 42 0
111 -31 120 -55 9 -26 7 -316 -3 -352 -8 -27 -5 -37 26 -79 74 -104 113 -202
139 -353 12 -72 21 -98 37 -112 12 -10 25 -18 29 -19 4 0 36 -44 72 -99 35
-54 79 -110 97 -124 l32 -25 -12 -75 c-24 -145 21 -269 140 -389 37 -38 72
-68 78 -68 43 0 112 135 165 325 44 155 87 252 130 293 26 26 38 31 78 29 61
-3 96 23 119 88 9 28 33 88 54 135 119 275 144 401 110 577 -13 66 -23 89 -65
148 -67 92 -109 181 -117 242 -5 45 -3 52 18 67 13 9 36 16 51 16 41 0 95 54
138 139 47 94 81 127 143 141 27 6 65 19 86 29 48 25 119 102 160 174 18 32
40 61 49 64 8 4 63 1 121 -6 255 -30 421 -43 821 -66 554 -31 934 -66 1113
-101 32 -7 33 -16 11 -127 -21 -104 -15 -205 16 -269 l23 -47 -30 -35 c-34
-37 -33 -36 -58 -143 -9 -40 -22 -77 -29 -82 -6 -5 -108 -15 -227 -20 -312
-16 -457 -45 -568 -115 -51 -32 -65 -65 -56 -132 8 -69 25 -119 79 -246 25
-59 46 -118 46 -132 0 -13 -11 -38 -25 -54 -46 -55 -28 -121 78 -270 36 -51
50 -83 59 -129 11 -61 12 -62 53 -72 23 -6 47 -16 52 -23 17 -21 80 -225 98
-318 10 -47 18 -137 19 -202 l2 -116 53 -90 c65 -109 162 -219 245 -274 73
-50 76 -53 76 -99 l0 -36 103 -14 c143 -20 370 -17 477 5 87 18 181 54 212 83
14 12 30 15 73 10 87 -9 170 9 295 65 146 65 267 108 304 108 16 0 48 -11 72
-25 59 -35 175 -42 369 -22 83 9 185 19 228 23 77 6 77 7 94 43 25 53 109 131
189 174 65 36 73 43 103 104 18 36 48 90 66 119 63 98 87 156 93 219 4 59 3
62 -24 80 -44 28 -274 256 -290 287 -22 42 -17 118 17 251 17 67 33 154 36
194 6 70 5 73 -30 122 -47 65 -83 137 -98 194 -9 37 -8 55 5 99 20 71 53 103
98 94 55 -10 129 19 226 89 50 35 110 74 135 86 l44 21 12 80 c25 160 80 295
154 375 55 61 114 103 144 103 12 0 23 4 23 10 0 5 -26 9 -57 8 -184 -4 -1522
22 -1543 30 -14 5 -143 13 -288 17 -145 3 -275 10 -290 14 -15 5 -222 9 -461
10 -317 1 -461 5 -530 16 -199 29 -492 54 -951 80 -669 38 -952 68 -1023 109
-23 13 -136 65 -252 114 -275 118 -279 120 -354 170 -87 59 -187 107 -371 182
-85 34 -171 70 -190 80 -72 38 -196 94 -235 105 -32 10 -52 27 -101 91 -64 82
-103 114 -141 114 -25 0 -156 112 -216 184 l-37 45 17 35 c14 30 14 42 5 75
-18 59 -40 79 -117 108 -89 33 -138 39 -186 23 -31 -10 -71 -11 -206 -1 -117
9 -186 10 -228 3 -38 -6 -64 -6 -72 0 -21 17 -117 48 -148 47 -16 0 -64 -13
-106 -28z m931 -60 c68 -26 77 -33 100 -74 24 -45 24 -46 7 -79 -41 -78 -77
-117 -114 -124 -34 -6 -223 1 -268 10 -44 9 -135 57 -135 71 0 20 22 30 135
58 55 13 117 32 137 40 69 29 74 97 7 97 -28 0 -37 9 -22 23 14 15 82 5 153
-22z m-1337 -293 c41 -14 58 -28 50 -40 -4 -7 -50 -8 -135 -4 -147 8 -190 0
-210 -42 -7 -15 -20 -28 -29 -30 -45 -8 -20 91 27 108 76 29 222 33 297 8z
m-252 -179 c11 -6 29 -30 39 -55 14 -31 25 -44 39 -44 24 0 36 -17 36 -49 0
-19 8 -27 40 -37 22 -8 50 -25 62 -39 22 -24 24 -25 52 -11 16 9 47 45 70 80
61 97 114 119 70 29 -17 -36 -24 -72 -29 -148 l-5 -100 -28 -3 c-65 -8 -233
71 -310 146 -69 67 -115 193 -82 225 19 20 20 20 46 6z m1982 -31 c9 -7 43
-49 77 -93 54 -71 61 -84 58 -120 -3 -38 -4 -40 -38 -40 -34 0 -35 1 -38 43
-3 38 -11 51 -63 102 -55 55 -73 93 -52 113 10 11 38 8 56 -5z m-507 -21 c9
-8 -50 -90 -87 -121 -26 -22 -40 -26 -78 -24 l-46 3 -3 48 c-3 45 -5 47 -33
47 -35 0 -39 22 -6 45 18 13 43 15 135 12 62 -2 115 -6 118 -10z m819 -170
l80 -42 -4 -77 c-4 -97 12 -103 25 -10 8 58 12 67 29 65 21 -1 350 -135 425
-172 72 -36 170 -105 176 -123 12 -38 -25 -51 -58 -21 -17 15 -18 14 -18 -40
0 -33 11 -90 26 -139 l27 -83 -22 -38 c-12 -20 -31 -66 -41 -101 -11 -35 -29
-74 -39 -88 -13 -16 -17 -29 -11 -38 5 -8 9 -41 8 -75 0 -55 -3 -62 -34 -88
-18 -15 -47 -50 -65 -77 -18 -28 -38 -50 -45 -50 -7 0 -22 12 -34 28 -17 21
-21 36 -17 65 5 39 77 172 105 195 14 10 13 12 -6 12 -34 0 -37 25 -15 94 19
57 21 82 5 72 -4 -2 -16 -27 -27 -55 -33 -87 -62 -57 -50 50 6 49 4 64 -10 79
-25 27 -46 117 -34 147 14 38 11 83 -6 83 -10 0 -15 -10 -15 -28 0 -45 -20
-64 -65 -60 -31 2 -43 9 -57 33 -16 29 -16 32 2 73 28 61 36 112 18 112 -8 0
-19 -18 -25 -43 -17 -62 -43 -92 -75 -84 -17 5 -28 16 -33 34 -3 15 -11 34
-17 40 -14 18 -48 16 -48 -1 0 -25 -45 -70 -63 -63 -27 10 -48 53 -54 109 -5
51 -4 54 21 66 23 10 26 17 26 62 0 39 -4 50 -16 50 -8 0 -35 17 -60 37 -41
35 -44 41 -44 85 0 46 1 48 28 48 15 -1 63 -20 107 -43z m-1061 -53 c39 -15 6
-64 -43 -64 -28 0 -32 21 -8 48 22 24 27 25 51 16z m635 -34 c50 0 69 -14 54
-38 -9 -15 -8 -22 4 -35 9 -8 13 -23 10 -31 -15 -39 -135 1 -162 54 -23 44
-13 64 26 56 18 -3 48 -6 68 -6z m202 -22 c0 -2 3 -29 5 -61 4 -46 2 -58 -11
-63 -21 -8 -45 13 -45 41 0 36 21 85 36 85 8 0 14 -1 15 -2z m-971 -33 c0 -43
-136 -133 -162 -107 -17 17 1 50 31 57 16 3 46 19 67 35 43 33 64 38 64 15z
m372 -72 c37 -43 23 -102 -20 -89 -31 10 -52 34 -52 60 0 44 44 61 72 29z
m-82 -70 c-1 -21 -65 -73 -90 -73 -17 0 -40 18 -40 32 0 4 10 8 23 8 13 0 34
11 47 25 27 29 60 33 60 8z m-138 -67 c19 -29 -70 -53 -132 -36 -45 12 -53 36
-17 49 29 11 140 1 149 -13z m-262 -21 c10 -12 9 -23 -4 -55 -9 -22 -16 -49
-16 -60 0 -31 -28 -24 -50 13 -22 36 -24 54 -10 91 7 20 17 26 39 26 15 0 34
-7 41 -15z m224 -192 c19 -25 19 -26 1 -39 -24 -18 -54 -18 -61 -1 -7 19 13
67 28 67 7 0 22 -12 32 -27z m237 -13 c10 -6 19 -20 19 -32 0 -18 -4 -20 -32
-14 -18 4 -48 10 -65 13 -33 6 -44 27 -20 36 22 9 78 7 98 -3z m-421 -30 c0
-22 -25 -100 -32 -100 -10 0 -30 79 -24 96 6 16 56 19 56 4z m9303 -187 c12
-7 8 -40 -8 -53 -11 -9 -30 -10 -68 -5 -28 5 -73 9 -99 10 -92 2 -87 51 5 58
53 4 156 -2 170 -10z m262 -23 c0 -31 -29 -39 -56 -14 -32 29 -24 46 19 42 32
-3 37 -6 37 -28z m-537 3 c-4 -25 -176 -82 -246 -83 -56 0 -116 23 -109 43 2
6 17 14 33 19 54 13 219 36 272 37 46 1 53 -2 50 -16z m-8498 -2 c0 -24 -118
-101 -154 -101 -35 0 -12 27 57 67 73 42 97 51 97 34z m5004 -31 c8 -8 4 -17
-14 -31 -19 -16 -32 -19 -60 -13 -19 4 -69 8 -110 8 -62 1 -75 4 -78 18 -3 18
11 24 78 32 57 7 172 -2 184 -14z m3922 -1 c47 -28 44 -49 -5 -49 -39 0 -99
16 -115 31 -17 15 15 39 52 39 19 0 50 -9 68 -21z m-3617 -22 c18 -23 -9 -37
-68 -36 -65 1 -133 19 -139 37 -6 18 191 17 207 -1z m388 -23 c8 -22 -19 -46
-57 -47 -39 -2 -61 23 -41 47 18 22 89 22 98 0z m-5897 -82 c0 -26 -29 -62
-49 -62 -21 0 -39 32 -22 38 6 2 21 12 33 22 29 24 38 25 38 2z m-91 -51 c15
-9 7 -66 -10 -77 -11 -7 -49 24 -49 39 0 12 30 47 39 47 3 0 12 -4 20 -9z
m5816 -86 l0 -60 -83 -3 c-61 -2 -84 -7 -89 -17 -7 -21 -33 -19 -33 2 0 9 10
27 22 40 19 20 20 26 9 47 -22 39 -6 49 64 41 43 -4 65 -3 70 5 4 6 14 10 23
8 14 -3 17 -15 17 -63z m76 -58 c-1 -12 -15 -9 -19 4 -3 6 1 10 8 8 6 -3 11
-8 11 -12z m4875 -95 c22 -14 34 -52 34 -106 0 -30 -5 -58 -10 -61 -6 -4 -24
5 -41 19 -17 14 -36 26 -44 26 -24 0 -24 29 -1 57 13 16 26 38 30 51 8 23 14
26 32 14z m-1005 -51 c30 -36 40 -38 57 -11 17 28 43 25 72 -8 22 -25 43 -32
180 -61 85 -18 163 -35 172 -37 35 -10 48 -34 48 -90 0 -48 -3 -56 -24 -66
-22 -9 -30 -6 -68 22 -24 18 -51 42 -61 53 -17 19 -20 19 -50 5 -27 -12 -68
-14 -249 -9 -208 6 -218 7 -249 30 -28 21 -33 22 -41 7 -13 -23 -28 -20 -59
10 l-27 26 -84 -27 c-65 -22 -91 -36 -119 -67 l-36 -38 -64 29 c-35 17 -122
42 -194 57 -71 14 -159 37 -195 50 -65 24 -65 24 -82 4 -9 -11 -27 -20 -40
-20 -39 0 -98 20 -119 41 -23 23 -25 72 -4 89 22 18 101 7 136 -19 31 -23 29
-24 43 22 3 10 41 14 147 17 279 8 310 7 349 -18 48 -30 101 -28 245 9 211 55
270 54 316 0z m620 -317 c14 -13 16 -21 8 -42 -21 -54 -91 -71 -129 -30 -29
31 -25 45 18 67 45 25 80 26 103 5z m-66 -134 c3 -5 -5 -25 -19 -43 -15 -19
-26 -43 -26 -54 0 -13 -11 -25 -31 -33 -39 -16 -69 -57 -104 -143 -27 -65 -41
-81 -125 -146 -29 -22 -32 -22 -49 -7 -10 9 -29 16 -43 16 -65 0 -89 69 -24
71 30 0 31 0 6 10 -51 21 -90 59 -90 89 0 34 5 37 85 65 34 12 104 48 157 79
147 88 246 124 263 96z m-8979 -86 c13 -14 24 -33 24 -44 0 -13 5 -17 19 -13
13 3 25 -3 36 -20 19 -29 14 -75 -16 -144 l-18 -43 27 -57 c23 -49 27 -71 26
-138 -1 -44 -8 -98 -16 -120 -13 -35 -19 -40 -44 -38 -16 1 -45 3 -64 5 -19 1
-42 0 -50 -2 -9 -3 -16 3 -18 19 l-4 24 -12 -24 c-6 -13 -18 -24 -26 -24 -12
0 -16 18 -18 81 -2 70 4 108 47 275 27 107 52 212 56 234 11 64 16 67 51 29z
m8369 -264 c0 -30 -33 -40 -51 -15 -19 25 -6 47 25 43 20 -2 26 -8 26 -28z
m-5 -79 c15 -29 13 -81 -4 -81 -7 0 -19 7 -26 15 -17 21 -27 19 -33 -6 -11
-40 -32 -14 -35 41 -4 68 14 88 59 64 16 -8 33 -23 39 -33z m350 -36 c12 -31
2 -58 -39 -109 -17 -21 -33 -54 -37 -72 -6 -35 -7 -35 -49 -28 -42 6 -44 5
-47 -22 -3 -26 -8 -30 -47 -35 -46 -6 -58 -16 -114 -99 -21 -32 -33 -41 -52
-38 -15 2 -47 -13 -89 -41 -95 -63 -122 -46 -66 42 33 53 37 78 15 97 -8 7
-15 18 -15 25 0 23 30 25 47 5 24 -28 34 -26 93 23 74 60 102 77 126 77 15 0
20 6 20 23 -1 16 5 23 22 25 26 4 26 6 7 35 -23 36 -1 68 60 85 28 8 64 14 82
13 18 0 35 4 38 9 11 18 35 10 45 -15z m529 -632 c12 -24 13 -602 1 -893 -5
-129 -16 -291 -25 -360 -22 -170 -69 -355 -102 -403 -15 -21 -29 -57 -32 -80
-6 -43 -24 -59 -35 -30 -4 10 -7 155 -7 323 0 350 11 469 71 775 67 344 90
498 90 611 0 33 3 64 7 67 11 12 22 8 32 -10z m-9392 -690 c204 -434 272 -563
363 -688 20 -27 47 -75 60 -105 12 -30 35 -80 50 -110 15 -30 35 -83 44 -118
35 -137 83 -202 149 -202 26 0 56 -29 80 -76 28 -54 112 -138 178 -177 90 -52
159 -118 159 -151 0 -22 -4 -26 -28 -26 -35 0 -120 28 -188 63 -203 103 -440
388 -627 755 -121 237 -197 434 -289 750 -41 140 -48 175 -38 187 7 8 17 15
22 15 5 0 34 -53 65 -117z m9101 -15 c20 -65 22 -136 11 -301 -11 -151 -10
-174 6 -240 23 -92 24 -295 2 -382 -9 -33 -21 -102 -27 -153 -23 -200 -56
-313 -107 -374 -19 -23 -67 -96 -106 -163 -80 -135 -137 -202 -214 -252 -47
-30 -53 -37 -53 -68 0 -25 -6 -37 -22 -46 -19 -10 -24 -8 -41 12 -38 46 -118
228 -143 326 -32 125 -37 262 -11 290 22 26 22 31 -5 35 -17 2 -24 11 -26 33
-2 24 10 47 65 116 37 48 81 103 96 123 21 27 35 36 57 36 15 0 35 3 44 6 21
8 28 74 18 172 -6 65 -5 85 5 94 8 6 30 38 49 71 32 54 33 61 19 77 -21 24
-19 40 15 93 37 59 37 66 3 64 -22 -2 -29 3 -31 21 -5 33 21 67 74 98 l47 28
22 -28 c28 -35 33 -27 45 69 5 42 12 81 15 86 10 16 51 10 70 -11 46 -50 75
-11 75 100 0 38 3 75 6 84 10 27 32 18 42 -16z m-2223 -683 c94 -20 200 -74
259 -132 72 -70 110 -159 166 -390 56 -227 71 -274 173 -548 88 -238 112 -314
99 -327 -5 -5 -24 -2 -45 7 -20 8 -54 15 -76 15 -52 0 -71 8 -71 31 0 23 36
39 86 39 27 0 34 4 34 19 0 32 -18 70 -46 96 -34 31 -54 32 -54 2 0 -28 -17
-47 -42 -47 -23 0 -24 -46 -3 -74 20 -26 19 -71 -2 -104 -30 -47 -94 -117
-114 -124 -17 -6 -19 -14 -14 -42 6 -28 3 -35 -12 -40 -52 -15 -293 -5 -324
14 -10 7 -10 14 0 37 10 25 8 37 -14 86 -15 36 -29 55 -36 51 -11 -6 -8 -53 6
-99 3 -11 -1 -29 -9 -40 -15 -20 -15 -20 -98 9 -245 85 -433 184 -534 282 -66
63 -75 83 -49 104 21 17 54 6 102 -35 46 -39 53 -42 53 -21 0 8 -19 30 -41 48
-23 18 -62 51 -88 73 -25 23 -72 60 -103 83 -80 59 -92 80 -84 147 6 50 4 55
-25 84 -33 34 -33 49 2 107 17 28 17 31 2 47 -16 15 -16 19 0 52 9 19 34 54
55 78 32 34 40 52 45 95 9 74 48 140 134 225 40 39 85 89 100 110 27 39 57 52
195 82 85 18 285 18 373 0z m1752 -185 c15 -29 8 -98 -12 -119 -14 -14 -70 -7
-81 10 -3 5 4 24 15 43 12 18 21 44 21 58 0 46 35 51 57 8z m543 -406 c16 -41
12 -102 -15 -212 -14 -57 -25 -132 -25 -168 0 -57 -2 -64 -19 -64 -11 0 -29
12 -41 28 -20 25 -22 35 -17 122 3 54 12 112 21 134 9 22 23 66 32 100 23 88
46 110 64 60z m-8115 -226 c8 -33 -8 -37 -37 -11 -21 19 -24 49 -5 56 17 6 34
-12 42 -45z m1456 -9 c12 -76 31 -811 25 -905 -4 -49 -12 -133 -18 -188 -10
-96 -11 -98 -42 -111 -29 -13 -86 -74 -86 -93 0 -5 11 -19 24 -31 18 -17 26
-41 36 -99 6 -42 27 -148 46 -235 43 -199 53 -299 40 -391 -11 -68 -12 -71
-41 -76 -24 -4 -31 -11 -35 -35 -5 -27 -9 -30 -45 -33 -57 -5 -98 10 -190 68
-62 39 -88 50 -121 50 -64 0 -68 12 -44 131 14 65 25 174 30 298 8 156 13 198
25 207 23 17 19 72 -17 223 -17 75 -33 137 -34 139 -1 2 -14 -4 -28 -13 -25
-17 -26 -16 -38 10 -10 22 -6 64 21 248 18 122 35 232 37 245 13 66 54 -19 96
-198 16 -69 40 -161 53 -205 25 -83 76 -175 96 -175 28 0 49 33 49 76 0 36 -3
43 -22 46 -14 2 -26 15 -34 38 -15 43 -18 112 -4 126 6 6 1 30 -15 69 -37 92
-31 161 16 177 16 5 -4 88 -49 201 -33 84 -34 89 -17 107 15 16 17 30 11 82
-3 35 -9 74 -12 88 -4 17 1 34 14 50 l20 24 35 -27 c20 -15 46 -27 58 -27 23
0 23 0 -4 28 -27 28 -35 52 -18 52 6 0 13 -4 16 -10 3 -5 13 -10 22 -10 12 0
13 3 3 15 -6 8 -10 22 -8 31 3 18 116 86 133 81 5 -2 13 -23 16 -48z m6476
-261 c42 -45 72 -107 89 -187 15 -71 38 -496 28 -512 -7 -12 -44 18 -44 36 0
7 -8 23 -19 36 -12 17 -20 48 -24 101 -6 85 -20 121 -45 116 -12 -3 -16 -12
-14 -33 13 -151 14 -166 2 -180 -29 -35 -49 -10 -106 137 -26 68 -57 143 -69
168 -33 68 -24 95 95 269 30 45 60 81 65 81 6 0 25 -15 42 -32z m-1338 -464
c12 -30 21 -61 21 -69 0 -27 -21 -26 -49 3 -22 22 -31 42 -36 85 -13 103 23
93 64 -19z m-268 66 c23 -13 25 -38 4 -46 -22 -9 -66 23 -59 41 7 18 27 19 55
5z m-356 -215 l40 -11 0 -128 0 -128 -39 -34 c-46 -40 -90 -45 -128 -14 -21
16 -28 34 -37 95 -15 100 -14 218 1 233 13 13 96 7 163 -13z m699 -77 c35 -54
50 -218 23 -245 -23 -23 -57 -8 -57 26 0 18 -13 39 -40 66 -41 40 -49 69 -30
106 6 10 18 19 26 19 8 0 13 4 10 9 -4 5 -3 16 0 25 9 24 51 20 68 -6z m-5703
-388 l62 -61 -7 -177 c-10 -267 -28 -393 -53 -369 -14 15 -84 415 -90 518 -6
117 -2 149 17 149 5 0 37 -27 71 -60z"/>
<path d="M3260 7685 c0 -15 4 -24 10 -20 6 3 10 12 10 20 0 8 -4 17 -10 20 -6
4 -10 -5 -10 -20z"/>
<path d="M11558 3863 c-2 -32 -3 -59 -2 -61 1 -2 9 4 18 13 20 20 21 78 2 94
-12 10 -15 2 -18 -46z"/>
<path d="M9290 2731 c0 -17 87 -101 104 -101 3 0 6 9 6 20 0 12 -15 30 -39 46
-22 14 -42 32 -45 40 -8 21 -26 17 -26 -5z"/>
<path d="M1221 7491 c-13 -23 -14 -51 -3 -51 14 0 32 23 32 41 0 27 -18 32
-29 10z"/>
<path d="M9393 7443 c9 -2 25 -2 35 0 9 3 1 5 -18 5 -19 0 -27 -2 -17 -5z"/>
<path d="M165 7030 c-3 -5 1 -10 9 -10 8 0 18 5 21 10 3 6 -1 10 -9 10 -8 0
-18 -4 -21 -10z"/>
<path d="M3350 4029 c0 -21 177 -179 199 -179 30 0 -7 40 -95 103 -29 20 -59
48 -68 62 -17 26 -36 33 -36 14z"/>
<path d="M12370 3658 c-1 -66 -6 -109 -20 -148 -23 -66 -24 -81 -7 -74 33 12
51 77 55 197 4 102 2 117 -12 117 -14 0 -16 -14 -16 -92z"/>
<path d="M7677 3515 c-65 -14 -90 -31 -69 -44 8 -5 41 -2 75 5 34 7 95 13 135
14 64 0 73 2 70 18 -3 14 -16 17 -78 19 -41 1 -101 -4 -133 -12z"/>
<path d="M10929 3428 c-57 -114 -72 -132 -149 -189 -64 -46 -80 -65 -80 -93 0
-13 55 -36 88 -36 17 0 22 -6 22 -25 0 -79 70 50 94 174 8 36 30 100 50 141
20 41 36 82 36 92 0 38 -21 15 -61 -64z"/>
<path d="M7300 3435 c0 -13 11 -15 63 -13 34 2 62 8 62 13 0 6 -28 11 -62 13
-52 2 -63 0 -63 -13z"/>
<path d="M7013 3403 c-63 -8 -32 -20 47 -19 67 1 77 3 63 14 -16 12 -44 13
-110 5z"/>
<path d="M11050 3150 c0 -5 5 -10 10 -10 6 0 10 5 10 10 0 6 -4 10 -10 10 -5
0 -10 -4 -10 -10z"/>
<path d="M7230 2985 c0 -13 14 -15 93 -13 53 2 92 7 92 13 0 6 -39 11 -92 13
-79 2 -93 0 -93 -13z"/>
<path d="M11096 2923 c9 -37 24 -53 24 -26 0 28 -10 53 -21 53 -5 0 -6 -12 -3
-27z"/>
<path d="M4546 2835 c-3 -9 1 -70 10 -137 15 -116 14 -229 -2 -320 -5 -31 -3
-38 10 -38 18 0 32 29 48 105 9 39 7 84 -6 205 -10 85 -20 165 -22 178 -5 25
-29 30 -38 7z"/>
<path d="M4454 2788 c3 -18 9 -50 12 -70 7 -39 20 -49 30 -24 8 20 -24 126
-37 126 -7 0 -9 -12 -5 -32z"/>
<path d="M12252 2680 c0 -14 2 -19 5 -12 2 6 2 18 0 25 -3 6 -5 1 -5 -13z"/>
<path d="M11081 2587 c-6 -6 -11 -23 -11 -39 0 -15 -9 -46 -21 -68 -20 -39
-20 -70 0 -70 6 0 17 14 26 30 16 32 29 36 68 21 38 -15 41 0 7 30 -22 21 -30
37 -30 62 0 37 -19 54 -39 34z"/>
<path d="M10764 2406 c-8 -21 -1 -49 14 -54 8 -2 12 8 12 32 0 36 -16 49 -26
22z"/>
<path d="M10947 1873 c-44 -93 -82 -232 -67 -247 11 -11 10 -12 35 85 9 36 32
102 51 145 36 84 39 94 26 94 -5 0 -25 -35 -45 -77z"/>
<path d="M4582 1588 c0 -40 -5 -85 -11 -100 -7 -19 -7 -29 1 -34 27 -17 55
104 38 165 -17 62 -29 49 -28 -31z"/>
<path d="M4586 1245 c-9 -24 -7 -78 4 -95 16 -26 31 4 28 55 -3 49 -20 70 -32
40z"/>
<path d="M4346 939 c-16 -23 -22 -90 -9 -102 3 -4 15 19 25 49 21 63 12 92
-16 53z"/>
<path d="M4260 855 c0 -8 5 -15 10 -15 6 0 10 7 10 15 0 8 -4 15 -10 15 -5 0
-10 -7 -10 -15z"/>
<path d="M4520 765 c0 -8 5 -15 10 -15 6 0 10 7 10 15 0 8 -4 15 -10 15 -5 0
-10 -7 -10 -15z"/>
</g>
</svg>
