<!--?xml version="1.0" standalone="no"?-->

<svg version="1.0" xmlns="http://www.w3.org/2000/svg" width="204.000000pt" height="300.000000pt" viewBox="0 0 204.000000 300.000000" preserveAspectRatio="xMidYMid meet">
<g transform="translate(0.000000,300.000000) scale(0.100000,-0.100000)" fill="#0F0F0F" stroke="none">
<path class="node" id="node1" d="M834 2871 c-243 -39 -451 -186 -567 -401 -46 -85 -58 -132 -15 -57
157 272 354 399 619 399 162 -1 286 -33 437 -115 247 -135 434 -360 526 -635
73 -216 74 -356 5 -572 -84 -261 -201 -413 -500 -651 -191 -153 -231 -207
-268 -362 -26 -108 -47 -150 -103 -203 -78 -75 -169 -107 -303 -107 -105 1
-241 32 -296 68 -38 25 -52 53 -83 166 -9 31 -23 63 -32 70 -16 13 -17 6 -12
-83 4 -75 11 -107 29 -145 60 -120 263 -180 470 -139 87 18 157 52 229 114 45
38 117 132 228 297 81 122 133 187 226 285 129 135 291 330 336 405 52 87 95
189 132 320 20 71 23 102 23 270 0 180 -2 195 -28 285 -36 119 -112 277 -170
356 -104 137 -302 301 -441 364 -143 65 -311 92 -442 71z"></path>
<path class="node" id="node2" d="M831 2544 c-234 -63 -400 -294 -376 -524 8 -75 46 -203 82 -275 33
-66 111 -170 164 -220 l43 -40 -34 40 c-75 88 -106 210 -65 255 18 20 27 22
88 17 95 -6 183 -51 267 -136 140 -141 174 -304 90 -426 -43 -63 -96 -85 -233
-96 -180 -15 -231 -45 -263 -156 -21 -71 -43 -93 -94 -93 -47 0 -85 17 -119
54 -51 54 -18 111 83 140 67 20 106 61 106 112 0 41 -27 72 -90 104 l-43 22
42 -40 c75 -71 52 -136 -69 -197 -81 -41 -100 -64 -100 -123 0 -80 54 -137
141 -148 73 -9 105 15 164 125 27 52 62 103 77 114 20 15 57 23 162 32 116 11
146 18 204 45 77 36 116 69 143 123 70 136 28 329 -99 456 -45 45 -81 70 -158
105 -217 102 -272 138 -322 213 -35 53 -37 61 -37 132 0 60 5 86 24 126 70
141 235 221 404 195 101 -15 186 -59 271 -140 165 -157 268 -419 269 -685 1
-209 -60 -359 -227 -559 -84 -101 -86 -104 -46 -76 160 111 289 313 327 514
33 174 -1 427 -80 599 -71 154 -204 290 -352 362 -136 65 -232 79 -344 49z"></path>


</g>
<g transform="translate(0.000000,300.000000) scale(0.100000,-0.100000)" fill="#A1A1A1" stroke="none">

</g>
</svg>